HIERARCHY
ROOT Hips
{
	OFFSET 0.000000 0.000000 0.000000
	CHANNELS 6 Xposition Yposition Zposition Xrotation Yrotation Zrotation
	JOINT LeftUpLeg_virtual
	{
		OFFSET 0.000000 0.000000 0.000000
		CHANNELS 3 Xrotation Yrotation Zrotation
		JOINT LeftUpLeg
		{
			OFFSET 15.427100 -6.655098 0.678600
			CHANNELS 3 Xrotation Yrotation Zrotation
			JOINT LeftLeg
			{
				OFFSET 4.081073 -39.591068 13.024000
				CHANNELS 3 Xrotation Yrotation Zrotation
				JOINT LeftFoot
				{
					OFFSET -4.081074 -37.707932 -15.979700
					CHANNELS 3 Xrotation Yrotation Zrotation
					JOINT LeftToeBase
					{
						OFFSET 5.346399 -15.068900 20.645000
						CHANNELS 3 Xrotation Yrotation Zrotation
						JOINT LeftToe_End
						{
							OFFSET 2.754700 0.931300 11.300900
							CHANNELS 3 Xrotation Yrotation Zrotation
							End Site
							{
								OFFSET 0 0 0
							}
						}
					}
				}
			}
		}
	}
	JOINT RightUpLeg_virtual
	{
		OFFSET 0.000000 0.000000 0.000000
		CHANNELS 3 Xrotation Yrotation Zrotation
		JOINT RightUpLeg
		{
			OFFSET -15.569500 -6.655098 0.678600
			CHANNELS 3 Xrotation Yrotation Zrotation
			JOINT RightLeg
			{
				OFFSET -4.081825 -39.591045 13.023800
				CHANNELS 3 Xrotation Yrotation Zrotation
				JOINT RightFoot
				{
					OFFSET 4.081824 -37.707954 -15.979600
					CHANNELS 3 Xrotation Yrotation Zrotation
					JOINT RightToeBase
					{
						OFFSET -5.346400 -15.068900 20.645000
						CHANNELS 3 Xrotation Yrotation Zrotation
						JOINT RightToe_End
						{
							OFFSET -2.754700 0.931300 11.300900
							CHANNELS 3 Xrotation Yrotation Zrotation
							End Site
							{
								OFFSET 0 0 0
							}
						}
					}
				}
			}
		}
	}
	JOINT Spine_virtual
	{
		OFFSET 0.000000 0.000000 0.000000
		CHANNELS 3 Xrotation Yrotation Zrotation
		JOINT Spine
		{
			OFFSET -0.279200 12.230698 -2.892100
			CHANNELS 3 Xrotation Yrotation Zrotation
			JOINT Spine1
			{
				OFFSET -0.232667 10.192268 -1.242267
				CHANNELS 3 Xrotation Yrotation Zrotation
				JOINT Spine1_split
				{
					OFFSET -0.232667 10.192268 -1.242267
					CHANNELS 3 Xrotation Yrotation Zrotation
					JOINT Spine2
					{
						OFFSET -0.232667 10.192268 -1.242267
						CHANNELS 3 Xrotation Yrotation Zrotation
						JOINT Neck_virtual
						{
							OFFSET 0.000000 0.000000 0.000000
							CHANNELS 3 Xrotation Yrotation Zrotation
							JOINT Neck
							{
								OFFSET -0.418800 17.814194 8.416900
								CHANNELS 3 Xrotation Yrotation Zrotation
								JOINT Head
								{
									OFFSET 0.000000 7.031097 3.806800
									CHANNELS 3 Xrotation Yrotation Zrotation
									JOINT HeadTop_End
									{
										OFFSET 0.000000 24.646606 12.978600
										CHANNELS 3 Xrotation Yrotation Zrotation
										End Site
										{
											OFFSET 0 0 0
										}
									}
								}
							}
						}
						JOINT LeftShoulder_virtual
						{
							OFFSET 0.000000 0.000000 0.000000
							CHANNELS 3 Xrotation Yrotation Zrotation
							JOINT LeftShoulder
							{
								OFFSET 8.476499 7.247704 -3.868750
								CHANNELS 3 Xrotation Yrotation Zrotation
								JOINT LeftShoulder_split
								{
									OFFSET 8.476499 7.247704 -3.868750
									CHANNELS 3 Xrotation Yrotation Zrotation
									JOINT LeftArm
									{
										OFFSET 9.308998 -2.777710 0.208600
										CHANNELS 3 Xrotation Yrotation Zrotation
										JOINT LeftForeArm
										{
											OFFSET 29.972298 0.000000 0.000000
											CHANNELS 3 Xrotation Yrotation Zrotation
											JOINT LeftHand
											{
												OFFSET 26.026505 0.000000 0.000000
												CHANNELS 3 Xrotation Yrotation Zrotation
												End Site
												{
													OFFSET 0 0 0
												}
											}
										}
									}
								}
							}
						}
						JOINT RightShoulder_virtual
						{
							OFFSET 0.000000 0.000000 0.000000
							CHANNELS 3 Xrotation Yrotation Zrotation
							JOINT RightShoulder
							{
								OFFSET -7.570500 7.247704 -3.868750
								CHANNELS 3 Xrotation Yrotation Zrotation
								JOINT RightShoulder_split
								{
									OFFSET -7.570500 7.247704 -3.868750
									CHANNELS 3 Xrotation Yrotation Zrotation
									JOINT RightArm
									{
										OFFSET -9.308998 -2.777710 0.208500
										CHANNELS 3 Xrotation Yrotation Zrotation
										JOINT RightForeArm
										{
											OFFSET -29.972300 0.000000 0.000000
											CHANNELS 3 Xrotation Yrotation Zrotation
											JOINT RightHand
											{
												OFFSET -26.026505 0.000000 0.000000
												CHANNELS 3 Xrotation Yrotation Zrotation
												End Site
												{
													OFFSET 0 0 0
												}
											}
										}
									}
								}
							}
						}
					}
				}
			}
		}
	}
}
MOTION
Frames: 9
Frame Time: 0.03333333
-3.840169 90.285172 -8.965397 0.000000 0.000000 0.000000 -10.395516 -2.077632 4.187392 -3.218286 7.921704 -3.456495 22.039444 1.316936 -4.290900 -14.266220 4.928529 3.140441 -0.864641 0.315023 -0.252824 0.000000 0.000000 0.000000 -9.470208 -3.139990 3.811102 -8.369258 -11.157665 -22.472094 26.854837 3.225111 4.714950 -7.009336 -16.787944 4.709137 -1.501504 0.743555 0.561352 0.000000 0.000000 0.000000 -9.257184 -1.770797 4.016333 6.727264 1.853097 -3.122585 14.271433 2.725119 -1.556695 0.473706 -1.642178 0.280365 0.000000 0.000000 0.000000 14.081046 2.509588 -2.165266 29.883768 -1.747749 -6.029461 1.131700 -1.862349 -5.067423 0.000000 0.000000 0.000000 14.958845 3.088966 -2.950379 -3.119445 -23.197749 -26.315064 -1.664157 -0.793795 -4.063078 -1.010580 -43.139861 -29.583605 9.651669 -24.466433 0.224567 0.000000 0.000000 0.000000 14.441416 3.088596 -2.490413 0.215417 23.079248 23.246786 -0.060165 0.681610 2.273277 -9.228443 20.567062 39.332379 36.048710 42.915940 -16.231373 0.000000 0.000000 0.000000 
-3.016438 90.596367 -8.654663 0.000000 0.000000 0.000000 -11.093234 -3.064295 4.683574 -0.292280 8.691692 -4.486282 19.788007 1.099192 -4.653340 -14.017379 4.618829 2.871512 0.055565 0.410879 -0.456679 0.000000 0.000000 0.000000 -10.254840 -3.105521 4.307999 -6.351850 -11.991746 -24.084425 25.114810 3.467746 4.746873 -6.960123 -15.698877 5.176731 -1.315104 0.667801 0.567589 0.000000 0.000000 0.000000 -10.634372 -1.724993 4.421269 6.625563 1.726455 -3.890272 12.875397 2.816202 -1.948197 0.822865 -1.748987 0.251017 0.000000 0.000000 0.000000 12.601538 2.619943 -2.375881 28.357578 -0.965398 -6.072435 0.618257 -0.516737 -5.308175 0.000000 0.000000 0.000000 13.534343 3.178751 -3.081066 -1.869583 -22.168938 -22.899905 -2.045234 -0.656826 -3.642110 -1.172466 -40.232693 -32.303253 8.451305 -23.604958 0.054628 0.000000 0.000000 0.000000 13.136706 3.164290 -2.670942 0.790806 21.515823 21.933894 0.172813 0.617775 2.621602 -4.384877 22.924903 40.331796 33.924330 45.319757 -15.377099 0.000000 0.000000 0.000000 
-2.351337 90.664154 -8.237671 0.000000 0.000000 0.000000 -11.206670 -3.772937 4.887106 1.484750 9.091765 -5.246488 18.331997 0.985570 -4.810068 -13.844075 4.270610 2.653469 0.582224 0.457130 -0.519761 0.000000 0.000000 0.000000 -10.508743 -2.963491 4.586642 -5.107347 -12.362255 -25.306187 23.998435 3.729723 4.876864 -7.002421 -14.729095 5.860173 -1.885030 0.612148 0.438655 0.000000 0.000000 0.000000 -11.218786 -1.518098 4.583627 6.415074 1.550822 -4.547795 11.472972 2.879156 -2.312270 0.999162 -1.846821 0.055859 0.000000 0.000000 0.000000 11.212690 2.681420 -2.598897 26.741371 -0.351826 -5.403866 -0.236513 0.490005 -5.208641 0.000000 0.000000 0.000000 12.126769 3.217305 -3.154302 -0.481456 -21.111604 -18.683747 -2.540211 -0.579244 -3.240936 -1.085244 -35.755788 -35.041217 8.844028 -24.272465 0.528386 0.000000 0.000000 0.000000 11.774904 3.166266 -2.848268 1.472328 19.772529 19.718830 0.313865 0.617259 2.803067 -0.412519 23.845814 41.855881 32.812977 47.023178 -15.442885 0.000000 0.000000 0.000000 
-1.902817 90.564888 -7.840874 0.000000 0.000000 0.000000 -10.995539 -4.110456 4.831625 2.191779 9.293628 -5.708947 17.596335 1.011160 -4.797830 -13.657242 3.921648 2.664659 0.629549 0.451597 -0.405576 0.000000 0.000000 0.000000 -10.356437 -2.919374 4.678224 -4.557496 -12.289362 -26.232607 23.392368 3.970454 5.092042 -6.865228 -13.963617 6.680127 -2.906014 0.566979 0.243756 0.000000 0.000000 0.000000 -11.220012 -1.394021 4.509070 6.038866 1.368873 -4.980428 10.125071 2.881414 -2.591422 1.377775 -1.969261 0.006240 0.000000 0.000000 0.000000 9.943611 2.664278 -2.791640 24.877950 0.100316 -4.301474 -1.500805 1.196913 -4.824810 0.000000 0.000000 0.000000 10.856447 3.154156 -3.200183 0.870672 -19.941169 -14.380074 -3.141020 -0.791193 -3.255184 -0.215041 -30.035900 -37.656701 10.723853 -25.248599 1.415316 0.000000 0.000000 0.000000 10.440554 3.094586 -2.998225 2.138495 17.970134 16.997209 -0.039813 0.840070 3.035478 1.931276 22.927972 44.010037 32.866867 47.593004 -16.353863 0.000000 0.000000 0.000000 
-1.628427 90.417061 -7.488853 0.000000 0.000000 0.000000 -10.689291 -4.249578 4.629057 2.255180 9.408361 -6.015225 17.316276 1.214487 -4.654890 -13.584344 3.692909 3.069496 0.510774 0.409787 -0.259177 0.000000 0.000000 0.000000 -10.007148 -3.150762 4.643615 -4.456536 -11.978004 -26.894891 23.115162 4.096878 5.339818 -6.534811 -13.545341 7.310152 -3.669012 0.524075 0.093631 0.000000 0.000000 0.000000 -10.841568 -1.586088 4.271480 5.536550 1.201483 -5.179058 8.862468 2.819704 -2.747081 1.619934 -1.758164 0.302892 0.000000 0.000000 0.000000 8.841308 2.572700 -2.914102 22.795550 0.427284 -3.171161 -2.976888 1.585447 -4.291460 0.000000 0.000000 0.000000 9.747821 3.009265 -3.227048 2.011053 -18.632536 -10.765012 -3.975355 -1.077423 -3.366530 0.688653 -23.691553 -40.376438 13.811378 -24.934364 2.399984 0.000000 0.000000 0.000000 9.208022 2.975693 -3.080979 2.684136 16.282269 14.371268 -0.660594 1.239869 3.402046 2.497956 20.238962 46.746207 33.826553 46.901410 -17.630706 0.000000 0.000000 0.000000 
-1.439909 90.299545 -7.175549 0.000000 0.000000 0.000000 -10.383948 -4.235968 4.408530 2.010248 9.469842 -6.279992 17.117417 1.544706 -4.427384 -13.682065 3.608498 3.701622 0.608929 0.372837 -0.215045 0.000000 0.000000 0.000000 -9.633149 -3.602128 4.550622 -4.499137 -11.617680 -27.309362 22.906827 4.035516 5.606942 -6.288858 -13.513424 7.487914 -3.720700 0.487002 0.055174 0.000000 0.000000 0.000000 -10.382543 -2.082027 4.016065 4.909964 1.044834 -5.189830 7.715924 2.708842 -2.777435 1.828036 -1.670544 0.616314 0.000000 0.000000 0.000000 7.877224 2.432255 -2.923575 20.569402 0.627909 -2.384635 -4.267077 1.748229 -3.773098 0.000000 0.000000 0.000000 8.811033 2.816418 -3.187255 2.869123 -17.275524 -8.108692 -4.878370 -1.367656 -3.556682 0.407163 -17.031435 -43.474748 17.233575 -22.889786 2.980250 0.000000 0.000000 0.000000 8.134810 2.820005 -3.063831 3.066658 14.879287 12.297418 -1.480195 1.525237 4.043013 1.644563 16.204260 49.881537 35.264198 45.153769 -18.714268 0.000000 0.000000 0.000000 
-1.349463 90.278534 -6.891914 0.000000 0.000000 0.000000 -10.155969 -4.254790 4.281347 1.923231 9.533948 -6.512921 16.767390 1.813491 -4.176574 -13.915018 3.555696 4.187722 0.764021 0.364793 -0.261723 0.000000 0.000000 0.000000 -9.379929 -4.077466 4.507229 -4.400545 -11.412386 -27.492090 22.609506 3.819607 5.824472 -6.290826 -13.749358 7.244972 -3.246024 0.473148 0.117723 0.000000 0.000000 0.000000 -9.995757 -2.731799 3.832892 4.262065 0.903755 -5.113208 6.729589 2.564883 -2.725373 2.109567 -1.530996 0.946106 0.000000 0.000000 0.000000 7.031736 2.285826 -2.823677 18.329709 0.734870 -2.121202 -5.059829 1.796489 -3.406674 0.000000 0.000000 0.000000 7.971695 2.619219 -3.072856 3.409517 -15.883904 -6.553436 -5.784682 -1.694540 -3.368191 -1.160384 -10.077039 -46.533676 20.517412 -19.908070 2.904750 0.000000 0.000000 0.000000 7.263323 2.650292 -2.960800 3.326694 13.815401 11.040434 -2.093501 1.948691 4.276328 0.093581 11.612329 52.932651 36.822506 42.824009 -19.206794 0.000000 0.000000 0.000000 
-1.278172 90.324142 -6.529434 0.000000 0.000000 0.000000 -10.041917 -4.462003 4.278588 2.157055 9.562822 -6.684811 16.372348 1.918444 -3.918370 -14.099180 3.457569 4.338145 0.767984 0.382588 -0.382316 0.000000 0.000000 0.000000 -9.313365 -4.494121 4.521260 -4.058682 -11.390756 -27.491832 22.265308 3.550244 5.970708 -6.440398 -14.136775 6.889938 -2.859726 0.480534 0.238547 0.000000 0.000000 0.000000 -9.779655 -3.323965 3.781040 3.671277 0.772433 -5.043145 5.921123 2.425508 -2.650377 1.995713 -0.999393 1.027816 0.000000 0.000000 0.000000 6.316599 2.163604 -2.650043 16.199523 0.727033 -2.361452 -5.125604 1.652382 -3.216286 0.000000 0.000000 0.000000 7.210626 2.467640 -2.894895 3.709686 -14.559547 -5.858408 -6.285428 -2.337311 -2.839459 -3.838698 -3.153676 -49.144816 23.326375 -17.062506 2.235735 0.000000 0.000000 0.000000 6.593252 2.488545 -2.807886 3.464108 13.060123 10.560267 -2.506163 2.295179 3.895580 -1.455980 7.014076 55.515883 38.139879 40.270297 -18.920881 0.000000 0.000000 0.000000 
-1.223531 90.386162 -6.088463 0.000000 0.000000 0.000000 -10.053801 -4.814325 4.386971 2.696907 9.635708 -6.759416 16.182048 1.853940 -3.674291 -14.150994 3.216632 4.213548 0.619551 0.408812 -0.536280 0.000000 0.000000 0.000000 -9.442881 -4.792894 4.594679 -3.571907 -11.485844 -27.429859 21.907349 3.386531 6.044350 -6.580343 -14.428631 6.832119 -2.933413 0.503575 0.351783 0.000000 0.000000 0.000000 -9.742370 -3.626623 3.871776 3.191256 0.669935 -5.000857 5.301116 2.295277 -2.592186 1.898926 -0.541518 0.740478 0.000000 0.000000 0.000000 5.717025 2.057045 -2.457478 14.213106 0.617095 -2.866404 -4.533079 1.225269 -3.089522 0.000000 0.000000 0.000000 6.559489 2.360235 -2.689846 3.857206 -13.431319 -5.559657 -6.375624 -3.114816 -2.400892 -6.584748 3.119266 -51.137783 25.480675 -15.284334 1.257795 0.000000 0.000000 0.000000 6.095139 2.339608 -2.640841 3.466558 12.540340 10.581632 -2.735007 2.276304 2.772187 -2.592329 2.997804 57.476657 38.986276 37.942039 -18.001831 0.000000 0.000000 0.000000 
